<?xml version="1.0" encoding="UTF-8" standalone="no"?>
<!-- Created with Inkscape (http://www.inkscape.org/) -->

<svg
   width="84.492271mm"
   height="29.301657mm"
   viewBox="0 0 84.492273 29.301655"
   version="1.1"
   id="svg4145"
   xmlns="http://www.w3.org/2000/svg">
  <defs
     id="defs4142" />
  <g
     id="layer1"
     transform="translate(-64.380468,-103.74589)">
    <g
       id="g3918"
       transform="translate(-365.61154,-1211.3084)">
      <g
         id="g3072"
         style="fill:#805ab4;fill-opacity:1">
        <path
           d="m 468.16478,1327.1076 q -0.49026,0 -0.75173,-0.2616 -0.26147,-0.2615 -0.26147,-0.7681 v -9.135 q 0,-0.5065 0.26147,-0.7681 0.26147,-0.2615 0.73538,-0.2615 0.49026,0 0.75173,0.2615 0.26147,0.2616 0.26147,0.7681 v 1.2746 l -0.17976,-0.4902 q 0.24512,-0.8334 0.99685,-1.3399 0.76806,-0.5066 1.78125,-0.5066 1.04588,0 1.83028,0.5066 0.80075,0.5065 1.24198,1.438 0.44123,0.9152 0.44123,2.2062 0,1.2746 -0.44123,2.2225 -0.44123,0.9314 -1.22563,1.438 -0.78441,0.5066 -1.84663,0.5066 -0.99685,0 -1.74857,-0.4902 -0.75172,-0.5066 -1.01319,-1.3074 h 0.1961 v 3.6769 q 0,0.5066 -0.27781,0.7681 -0.26147,0.2615 -0.75172,0.2615 z m 3.02323,-4.4613 q 0.60465,0 1.06222,-0.2942 0.45757,-0.2942 0.70269,-0.8661 0.26147,-0.5883 0.26147,-1.4544 0,-1.3074 -0.55562,-1.9447 -0.55562,-0.6538 -1.47076,-0.6538 -0.60465,0 -1.06222,0.2942 -0.45757,0.2779 -0.71904,0.8661 -0.24512,0.572 -0.24512,1.4382 0,1.2909 0.55562,1.961 0.55562,0.6537 1.47076,0.6537 z"
           style="font-weight:bold;font-size:16.3418px;line-height:0.9;font-family:Nunito;-inkscape-font-specification:'Nunito, Bold';text-align:center;letter-spacing:-0.22379px;text-anchor:middle;fill:#805ab4;fill-opacity:1;stroke-width:0.408547"
           id="path2325" />
        <path
           d="m 480.67126,1324.1987 q -1.35637,0 -2.33688,-0.5066 -0.98051,-0.5066 -1.51979,-1.438 -0.52294,-0.9315 -0.52294,-2.2062 0,-1.242 0.5066,-2.1734 0.52294,-0.9315 1.42174,-1.4545 0.91514,-0.5392 2.0754,-0.5392 0.84978,0 1.51979,0.2778 0.68636,0.2778 1.16027,0.8007 0.49025,0.523 0.73538,1.2747 0.26147,0.7354 0.26147,1.6668 0,0.2942 -0.21244,0.4576 -0.19611,0.147 -0.57197,0.147 h -5.24572 v -1.1766 h 4.59205 l -0.26147,0.2452 q 0,-0.7517 -0.22878,-1.2583 -0.21245,-0.5066 -0.63733,-0.7681 -0.40855,-0.2778 -1.02954,-0.2778 -0.68635,0 -1.17661,0.3268 -0.47391,0.3105 -0.73538,0.8988 -0.24512,0.5719 -0.24512,1.3728 v 0.1143 q 0,1.34 0.62098,2.0101 0.63733,0.6537 1.86297,0.6537 0.42489,0 0.94782,-0.098 0.53928,-0.1144 1.0132,-0.3758 0.34317,-0.1962 0.60464,-0.1635 0.26147,0.016 0.40855,0.1797 0.16341,0.1634 0.1961,0.4085 0.0327,0.2288 -0.0981,0.474 -0.1144,0.2451 -0.40855,0.4248 -0.57196,0.3596 -1.32368,0.5393 -0.73538,0.1634 -1.37271,0.1634 z"
           style="font-weight:bold;font-size:16.3418px;line-height:0.9;font-family:Nunito;-inkscape-font-specification:'Nunito, Bold';text-align:center;letter-spacing:-0.22379px;text-anchor:middle;fill:#805ab4;fill-opacity:1;stroke-width:0.408547"
           id="path2327" />
        <path
           d="m 486.37954,1324.1661 q -0.49026,0 -0.75173,-0.2615 -0.26147,-0.2778 -0.26147,-0.7844 v -6.1773 q 0,-0.5065 0.26147,-0.7681 0.26147,-0.2615 0.73538,-0.2615 0.47392,0 0.73539,0.2615 0.26146,0.2616 0.26146,0.7681 v 1.1113 l -0.17976,-0.4085 q 0.35952,-0.8805 1.12843,-1.2768 0.73538,-0.5065 1.53557,-0.5065 0.9455,0 1.4911,0.5065 0.78441,0.5065 1.04688,1.2768 0.26146,0.8865 0.26146,2.2062 0,1.2746 -0.47974,2.1734 -0.47974,0.9315 -1.1766,1.438 -0.68636,0.5066 -1.51979,0.5066 -0.99686,0 -1.74857,-0.4902 -0.75173,-0.5066 -1.0132,-1.3074 h 0.1961 v 3.6769 q 0,0.5066 -0.26146,0.7681 -0.26146,0.2615 -0.73538,0.2615 z"
           style="font-weight:bold;font-size:16.3418px;line-height:0.9;font-family:Nunito;-inkscape-font-specification:'Nunito, Bold';text-align:center;letter-spacing:-0.22379px;text-anchor:middle;fill:#805ab4;fill-opacity:1;stroke-width:0.408547"
           id="path2329" />
      </g>
    </g>
  </g>
</svg>
